<?xml version="1.0" encoding="utf-8"?>
<!-- Generator: Adobe Illustrator 23.0.0, SVG Export Plug-In . SVG Version: 6.00 Build 0)  -->
<svg version="1.1" id="レイヤー_1" xmlns="http://www.w3.org/2000/svg" xmlns:xlink="http://www.w3.org/1999/xlink" x="0px"
	 y="0px" viewBox="0 0 197.2 58.1" style="enable-background:new 0 0 197.2 58.1;" xml:space="preserve">
<style type="text/css">
	.st0{fill:#FFFFFF;}
</style>
<g>
	<path class="st0" d="M154.8,14c-0.5,0.2-0.8,0.5-1,0.9c-0.5,0.6-0.3,1.2-0.1,2.1c1.6,0.9,14.1-0.1,17.1-0.1c0,0.2,0,0.4,0,0.6
		c-1.4,1.3-3.5,1.6-4.6,3.3c-0.6,0.9-0.1,1.9-1.2,2.3c-0.2-0.5-0.3-0.5-0.8-0.6c-0.3,0.1-0.5,0.3-0.8,0.4c-0.4,0.2-0.5,0.6-0.5,1.1
		c0.1,0.2,0.3,0.4,0.4,0.6c0.2,0.1,0.4,0.1,0.6,0.2c1.1-0.7,2.2-1.4,3.3-2.1c1.2-1.2,2.4-2.4,3.6-3.6c0,2.2-0.3,5.5-0.9,7.2
		c-0.5,1-1,1.9-1.4,2.9c-0.3,0-0.6,0-0.8,0c0,0.2,0,0.3,0,0.5c1.5,0.7,5.2,0,7.2-0.1c-0.2-1.2-1.5-1.7-2-2.6c-1.2-2.3-0.9-5-0.7-7.8
		c0.1,0,0.1-0.1,0.2-0.1c1.4,1,7.5,7.9,7.5,3.3c-0.4-0.3-0.8-0.6-1.2-0.9c-0.5,0.2-0.8,0.3-1.1,0.5c-1.1-0.8-0.7-2.4-1.8-3.3
		s-2.5-0.2-3.4-1.4c0.9-1,2.8-0.3,4.4-0.5c3.7-0.2,7.4-0.4,11.2-0.6c0.4-1.4,0.9-2.1,0.8-3.7c-0.6-0.6-1.5-1.6-2.7-0.9
		c-0.6,0.3-0.8,1-1.2,1.5c0,0.7,0.1,1.3,0.6,1.5c-2,0-4.1-0.1-6.1-0.1c-2.1,0.4-4.2,0.6-6.7,0.6c0-0.8-0.1-1.5-0.1-2.3
		c1.1-0.1,2.1-0.1,3.2-0.2c-0.4-0.5-1.2-0.7-1.9-0.9c-0.1-0.2-0.3-0.3-0.4-0.5c0.5,0,1.1,0,1.6,0h0.1c0-0.2,0.1-0.4,0.1-0.6v-0.1
		c-1-0.3-1.5-0.3-1.9-1.2c-0.1,0-0.1-0.1-0.2-0.1c0.5-0.1,1-0.1,1.5-0.2c0.2-0.2,0.2-0.1,0.3-0.4c-0.4-0.6-0.8-1.1-1.2-1.7
		c0.5-0.4,1-0.2,1.4-0.4c-0.3-1.1-1.2-1.5-1.5-2.7c0.5-0.1,0.6-0.2,1.1-0.2c-0.8-1.1-1.5-2.3-2.3-3.4c-0.1-0.1-0.1-0.1-0.2-0.2
		c-0.6,1.5-1.6,2.8-2.3,4c0.3,0.2,0.7,0.3,1,0.5c-0.3,0.7-1,1.2-1.3,2c-0.1,0.1-0.1,0.1-0.2,0.2c0.4,0.2,0.6,0.1,1.2,0.1
		c-0.2,0.9-0.9,1.4-1.3,2.1c-0.1,0.1-0.1,0.1-0.2,0.2c0.1,0.1,0.2,0.3,0.3,0.4c0.4-0.1,0.8-0.1,1.2-0.2v0.1
		c-0.5,0.8-1.3,1.1-1.8,1.9c0.3,0.2,0.6,0.2,1,0.1c0.1,0,0.1,0.1,0.2,0.1c-0.2,0.6-1.1,1.4-1.8,1.7c-0.1,0.1-0.1,0.2-0.2,0.3
		c0.1,0.1,0.1,0.2,0.2,0.3c0.8-0.3,1.6-0.5,2.5-0.8h0.1c-0.1,0.7-0.1,1.4-0.2,2.1c-4.6,1.2-8.9,0.3-13.5,1.2h-0.1c0-0.4,0-0.9,0-1.3
		C156.6,14.4,155.9,13.7,154.8,14z"/>
	<path class="st0" d="M78.5,25.6c-2-0.3-3.9-0.7-5.9-1c-0.1,0.6-0.3,1.1-0.4,1.7v0.1c1.2,0.3,2.5,0.6,3.7,0.8c0,0.8,0.1,1.7,0.1,2.5
		c-0.7,3.5-4.1,4.4-5.3,7.6c-1.2,3.3,0.5,6.9-0.3,9.8c-0.6,0.8-1.1,1.7-1.7,2.5c-0.1,0-0.2,0.1-0.3,0.1c-0.2-0.5-0.3-0.8-0.8-1
		c-0.4-0.1-0.6,0-0.9,0.1c-0.7,0.8-0.9,1.1-0.9,2.5c0.2,0.3,0.3,0.5,0.5,0.8c3.2,1.3,4.7-2.5,5.6-4.7c2.2-7.1,4.4-14.2,6.6-21.4
		C78.5,25.8,78.5,25.7,78.5,25.6z"/>
	<path class="st0" d="M193.9,44.5c-0.1,0.3-0.1,0.6-0.2,0.8c0.1,0.6,0.5,1.3,0.9,1.7c-0.6,0.3-1.2,0.6-1.9,0.9
		c-2.7-1.5-2.2-3.4-3.9-5.4c-2-2.2-6.3-1.1-7-4.7c3.3-0.2,6.7-0.3,10-0.5c0.4-1.6-0.2-2.7-0.6-3.6c-0.2-0.1-0.5-0.1-0.7-0.2
		c-0.9,0.4-1.5,1.2-1.3,2.4c-2.6,0.7-4.6,0-7.1-0.1c0-0.7,0-1.4,0-2.1c0.5,0,1.1-0.1,1.7-0.1c0.1,0,0.1-0.1,0.2-0.1
		c-0.8-1-1.6-2.1-2.4-3.1c0.7,0,1.4-0.1,2.1-0.1c0.1-0.2,0.1-0.4,0.2-0.6c-1-0.6-1.7-0.9-2.3-1.9c0.3,0.1,0.7,0.1,1,0.2
		c-0.6-1.1-1.2-2.1-1.8-3.2c-0.1,0-0.1-0.1-0.2-0.1c-0.6,0.9-1.2,1.9-1.9,2.8c-0.1,0.1-0.1,0.1-0.2,0.2c0.4,0.3,0.9,0.5,1.5,0.6
		c-0.7,0.6-1.4,1.2-2.1,1.8c0.4,0.3,0.7,0.5,1.2,0.4c0.1,0,0.1,0.1,0.2,0.1c-0.1,2-1.2,2.5-2.1,3.6c0.9-0.1,1.9-0.2,2.8-0.3
		c0,0.8,0,1.6,0,2.4c-1.3,0.3-3.1,0.5-4.4,0.4c-0.4-0.5-0.5-1-1.1-1.3c-0.8-0.3-1.3,0.3-1.8,0.6c-0.1,0.5-0.3,0.8-0.2,1.3
		c0,0.1-0.1,0.3-0.1,0.4c2.6-0.1,5.2-0.2,7.8-0.3c0,6.6-3.4,4.6-5.3,7.7c-0.6,1-0.5,2.9-0.5,4.2c-0.1,0-0.1,0.1-0.2,0.1
		c-0.5-0.6-1.3-0.8-2.1-0.6c-0.3,0.6-0.6,1.4-0.6,2.3c0.4,0.3,0.8,0.6,1.1,0.9c0.6-0.1,1.1-0.2,1.7-0.3c1.7-2.9,3.4-5.8,5.2-8.7
		c0.1,0,0.2-0.1,0.3-0.1c-0.1,3.3-0.3,5.9-1.1,8.7c-0.5,1.5-1.5,2.6-1.4,4.5c-0.2,0.2-0.5,0.5-0.7,0.7v0.1c3.1-0.1,6.3-0.2,9.4-0.3
		v-0.1c-2.2-2.8-4.5-7-3.8-11.7c0-1,0-2,0-3c0-0.1,0-0.1,0-0.2c2.8,2.2,4.7,6.5,8.5,7.5c0.7-0.1,1.4-0.2,2.2-0.3
		c2.7-0.5,4.4-1.4,4.3-4.2c-0.2-0.2-0.3-0.5-0.5-0.7C195.5,43.7,194.7,43.9,193.9,44.5z"/>
	<path class="st0" d="M168.6,47.1c-3.4,4.2-1.9-4.3-2.2-5.6c-1.5-1-3.6-1.8-3.6-4.3c1.6-0.1,3.2-0.1,4.7-0.2c0.3-0.6,0.5-1,0.4-1.8
		c-0.5-0.3-1-0.7-1.4-1c-0.2,0.1-0.5,0.1-0.7,0.2c-0.2,0.2-0.3,0.5-0.5,0.7c0.1,0.3,0.2,0.7,0.3,1v0.1c-1.3-0.1-2.4-0.2-3.6,0.1
		h-0.1c0-0.8-0.1-1.7-0.1-2.5c1,0,2-0.1,3-0.1c-0.2-0.9-1.4-1.6-1.9-2.4c0-0.1,0-0.2,0-0.3c0.4,0.2,1.2,0.2,1.8,0.1
		c0-0.1,0.1-0.2,0.1-0.3c-0.1-0.2-0.1-0.4-0.2-0.6c-1.3,0.2-2.1-0.9-2.5-2c0.5-0.1,0.6-0.3,0.7-0.7c-0.7-0.8-1-1.4-1.5-2.4h-0.1
		c-0.6,1.2-1.2,2.3-1.9,3.5c0.4,0,0.8-0.1,1.1-0.1c-0.7,0.8-1.4,1.6-2.2,2.5c0,0.1,0.1,0.1,0.1,0.2c0.5,0.2,1,0.2,1.8,0.2v0.1
		c-0.4,0.8-1.3,1.7-2.2,1.7c-0.1,0.2-0.2,0.4-0.3,0.6c0.9,0,1.8,0,2.7,0c0,0.8,0,1.5,0,2.3c-1.1,0.1-2.7,0.3-3.8,0.2
		c-0.4-0.1-0.9-0.7-1.3-1c-0.7,0.1-1,0.3-1.2,0.9c0,0.4,0.1,0.9,0.1,1.3c0,0.1,0,0.1,0,0.2c2.2-0.1,4.3-0.2,6.5-0.3
		c-0.7,1.6-1.2,3.1-2.6,4c-1.2,0.8-2.8,0.8-3.6,2c-1.7,2.4-1.4,5.6-4.2,6.9c-0.7-0.3-1.1-0.5-1.8-0.9c-0.3,0.1-0.6,0.1-0.9,0.2
		c-0.3,0.5-0.5,0.9-0.6,1.8c0.2,0.3,0.3,0.6,0.5,0.9c1,0,2.1-0.1,3.1-0.1c2.8-2.1,4.6-5.1,6.7-7.8c0.9-1.2,1.9-2.4,2.8-3.6
		c0.1,0,0.1-0.1,0.2-0.1c0.2,4,0.5,15.7-3.2,16.6c-0.1,0.1-0.1,0.3-0.2,0.4v0.1c3,0,6.1-0.1,9.1-0.1c0.1-0.1,0.1-0.2,0.2-0.3
		c0-0.1-0.1-0.3-0.1-0.4c-0.4,0-0.8,0.1-1.1,0.1c-3-1.4-2.4-10.9-2.9-14.8c0-0.1,0.1-0.2,0.1-0.3c0.1,0,0.1-0.1,0.2-0.1
		c1.2,2.5,2.5,5,3.7,7.5c1.1,0.3,2.2,0.6,3.3,0.8c0.5,0,0.5-0.1,0.8-0.2c0.1-0.7,0.2-1.4,0.3-2.1C169.9,47.6,169.3,47.2,168.6,47.1z
		"/>
	<path class="st0" d="M32.3,27.5c-1.5-0.3-2.2-1.8-3.7-2.1c-0.2,1.7-0.5,3.4-0.7,5.1c1.5,0.7,3,1.4,4.4,2.1
		C32.3,30.8,32.3,29.1,32.3,27.5z"/>
	<path class="st0" d="M91.5,32.1c0.3-1.4,0.6-2.9,0.8-4.3c-1.1-0.6-2.3-1.2-3.4-1.9c-0.4,1.1-0.8,2.1-1.1,3.2
		c0.4,0.9,2.6,2.4,3.5,2.8C91.3,32,91.4,32,91.5,32.1z"/>
	<path class="st0" d="M10.7,29.5c0,0.1,0.1,0.1,0.1,0.2c0.9,0.5,2.3,0,3.4,0.6c0.1,0,0.2,0.1,0.3,0.1c-0.5,3.7-1.8,2.3-4.4,3.5
		c-1.3,0.6-2.7,2.2-3.4,3.4C4,42,7.7,47.7,3.4,51c-0.7-0.6-1.3-1.3-2.3-0.8c-0.9,0.4-1.2,1.3-1,2.6c0.7,0.4,1.3,0.8,2,1.1
		c2.7-0.3,4.1-3.6,5.2-5.7c3.4-6.5,6.8-12.9,10.2-19.4c-2-0.5-3.9-1-5.9-1.4C11.3,28.2,11,28.8,10.7,29.5z"/>
	<path class="st0" d="M118.3,35.5c0.6,0.5,1.6,0.9,1.9,1.8c1.1,0.7,2.7,0.2,4.5,0.2c0.6-0.8,1.6-2,2.1-2.9c0.1-0.4,0-2.9-0.1-3.3
		c-1.6-0.5-1.7-1.8-3.2-2.2c-0.3,0.2-0.5,0.4-0.8,0.6c-0.6-0.2-0.8-0.4-1.7-0.4c-0.8,0.8-2.6,1.9-2.7,3.2c0.1,0.4,0.3,0.8,0.4,1.1
		C118.6,34.3,118.2,34.5,118.3,35.5z M122.1,30.8c1.9,0.1,3.7,1.8,2.9,3.6c-0.4,0.5-0.8,1-1.2,1.5c-1.3,0.2-2.2,0-3.3-0.4
		C119.6,33.3,120.3,32,122.1,30.8z"/>
	<path class="st0" d="M85.9,30.5c-0.1,0-0.2,0-0.3,0c-0.1,1.6-0.3,3.2-0.4,4.7c1.2,0.7,2.4,1.4,3.6,2.1c0-1.6-0.1-3.2-0.1-4.9
		C87.4,32,86.8,31.2,85.9,30.5z"/>
	<path class="st0" d="M114.1,38.8c-0.5-0.3-1.3-0.7-2.1-0.5c-0.6,0.3-1.1,0.7-1.2,1.4c0.3,0.6,0.5,1,1.2,1.2c-0.6,1.5-2.6,0.7-4,1.3
		c-1.5,0.7-1.5,3.1-2.9,3.8c-0.1,0.1-0.1,0.1-0.2,0.2l-0.1-0.1c-0.8-3.3,2.1-5,1.3-8.3c-0.4-2-2.4-2-2.5-4.3c0-0.1,0.1-0.1,0.1-0.2
		c0.7-0.3,1.6,0,2.4-0.3c0.3-0.4,0.2-1.6,0.2-2.3c-1.5,0.1-3,0.1-4.4,0.2c-0.6,0.7,0.1,3.5,0.1,4.6c0.2,4.2,0.5,8.4,0.7,12.6
		c3.4,0.3,12.1-6,11.5-9C114.1,39.2,114.1,39,114.1,38.8z"/>
	<path class="st0" d="M25.3,35.6c1.3,0.9,2.6,1.8,3.9,2.7c0.6-0.8,0.4-3.9,0.4-5.1c-1.1-0.6-2.3-1.2-3.4-1.9
		C25.9,32.8,25.6,34.2,25.3,35.6z"/>
	<path class="st0" d="M145.8,42.5c0,0.4-0.1,0.8-0.1,1.1c0.4,0.4,0.7,0.5,1.1,0.8c0.7-0.1,1.3-0.3,2-0.4c2.5-1.4,3.7-6.7,1.9-9.4
		c-1.3-1.9-4.9-2.6-7.6-3.1c-3.7-0.7-9.9,4.5-9.2,8.2c0.4,1.9,1.4,2.8,2.2,4.1c2,0.1,3.9,0.2,5.9,0.3c0.7-2.3,1.2-5.7,2.9-7.1
		c0.1-0.3,0.3-0.6,0.4-0.8c-1.2-0.2-2.5-0.5-3.7-0.7c-0.1,0.6-0.1,1.1-0.2,1.6c0.3,0,0.7,0,1,0c-0.4,1.9-0.9,3.8-1.3,5.7
		c-0.3,0.3-2.2,0.4-2.9,0.1c-2.7-1.3,0.1-3.5,0.5-4.9c0.3-1,0-2.1,0.3-3.1c1.5-3.2,7.7-1.3,9.5,0.1c-1.8,3.5-1,3.5,0.5,6.5
		c0,0.7-0.2,1.2-0.6,1.4C148.5,41.7,146.6,42.1,145.8,42.5z"/>
	<path class="st0" d="M27.8,54c-0.2-2.1-1.2-2.9-1.5-5.3C26.1,47.3,27,46,27.2,45c-0.7-1.7-0.4-3.6-1.4-5c-1.4-2.2-4.8-2.2-6.1-4.6
		c0.5-0.6,1.6-1.1,2.6-1.2c-0.3-0.8-0.6-1.5-0.9-2.3c-1.2,0.7-2.5,1.4-3.7,2.1c-0.3,0.9,2,4.8,2.5,6c2.7,6,5.4,12,8.1,18.1
		c1.4-0.2,1.5-1.1,2.5-1.6C30.6,54.6,29.4,53.9,27.8,54z"/>
	<path class="st0" d="M58.7,32.1c-1,0.8-1.8,1.8-3,2.5c0,1.2,0.2,1,0.5,1.8c0.1,0.4-0.5,0.8-0.3,1.4c0,0.1,0,0.1,0,0.2
		c0.3,0.4,1,0.3,1.3,0.6c0.4,0.4,0.1,1.1,0.7,1.3c0.6,0.2,3-0.7,4-0.8c0.6-0.9,1.1-2.1,1.7-3c-0.4-0.9-1.1-1-0.7-2.1
		C62.5,33.2,59.9,32.2,58.7,32.1z M58.8,38.3c-0.3-0.1-0.6-0.3-0.8-0.4c-0.2-0.9-0.8-1.7-0.3-2.5c0.3-0.6,0.9-0.8,1.3-1.1
		c0.5,0,1,0.1,1.4,0.1c0.3,0.5,0.7,1,1,1.4C61.4,37.5,60.5,38.2,58.8,38.3z"/>
	<path class="st0" d="M85.2,48.4c-1-2.6,0.1-5.3-0.9-7.7c-0.9-2-3.2-2-3.9-4.2c0.4-0.6,1.1-1.3,1.9-1.4c0-0.1,0.1-0.1,0.1-0.2
		c-0.1-0.6-0.2-1-0.6-1.3c-1.1,0.6-2.3,1.2-3.4,1.9c-0.3,0.3,1,3.3,1.3,4c1.7,4.1,3.4,8.3,5.1,12.4c0.9-0.2,1.8-0.5,2.7-0.7
		c0.1-0.6,0.3-1.2,0.4-1.8C87.2,48.6,86.1,48.4,85.2,48.4z"/>
	<path class="st0" d="M48.5,40.1c-0.5,1.2,0.6,1.6,1,2.2c-0.7,1.5-1.4,1.2-2.9,1.9c-1.2,0.5-1.8,2.7-2.1,4c-2.1-0.7,1.1-6.1,0.8-8.1
		c-0.2-1.8-1.6-2.2-2.3-3.6c0-0.2-0.1-0.3-0.1-0.5c0.8-0.1,1.5-0.3,2.3-0.4c0.2-0.4,0.2-1.1,0.2-1.8c-0.9,0-1.7-0.1-2.6-0.1
		c-0.3,0-0.7,0.1-1,0.1c0.1,5.7,0.3,11.4,0.4,17h0.1c2.7-2,9.5-6.8,9.5-11c-0.1-0.1-0.1-0.2-0.2-0.3C50.7,39.1,49.1,39.3,48.5,40.1z
		"/>
	<path class="st0" d="M128.2,35.1c-0.9,1.5-1,2.1,0.1,3.4c-1,1.1-3.1,1.1-4.1,2.2c-1.1,1.1-1.7,4.3-3.1,5c0,0.1,0.1,0.1,0.1,0.2
		c-0.8-0.6-1.4-1.7-2.9-1.3c-0.6,0.2-0.8,0.6-1,1.1c0.1,0.5,0.1,1,0.2,1.4c0.1,0.1,0.1,0.1,0.2,0.2c5.6,0.5,8.6-2.8,10.9-5.9
		c0.1-0.3,0-0.1,0.3,0c0.7-1.9,1.7-2.9,2-5.6c-0.1-0.1-0.1-0.2-0.2-0.3C129.9,35.4,129,35.2,128.2,35.1z"/>
	<path class="st0" d="M34.8,36.1c0,0.6,0.1,1.2,0.1,1.9c0,0.1,0,0.1,0,0.2c0.5-0.1,1-0.3,1.4-0.4c0.1,0.1,0.1,0.1,0.2,0.2
		c-0.5,1.6-1.3,2.4-1.7,3.7c-0.7,2.7,1.5,3.4,0.5,5.9c-0.3,0.1-0.7,0.3-1,0.4c-0.3-1.6-2.1-1.6-2.7-0.3c0,0.8,0.2,0.9,0.4,1.4
		c5.9,3.3,5.9-7.6,5.8-13C36.8,36.1,35.8,36.1,34.8,36.1z"/>
	<path class="st0" d="M94.8,38.2L94.8,38.2c0.7,0.5,1.6,0.6,2.6,0.6c0.4,2.8-2.6,2.8-3.3,4.9c-0.5,1.3,0.7,2.8,0.9,3.6
		c0.4,1.6-0.8,2.8-1.1,3.7c-0.1,0-0.1,0.1-0.2,0.1c-0.6-0.6-0.8-0.7-2-0.7c-0.9,0.8-1,1.9-0.2,2.9c5.3,1.2,7.5-10.8,8.1-15.6v-0.1
		c-1.5-0.3-3-0.5-4.4-0.8C95,37.2,94.9,37.7,94.8,38.2z"/>
	<path class="st0" d="M67.4,40.7c0.7-1.1,0.9-2.4,0.7-3.3c-0.4-0.1-0.9-0.1-1.3-0.2c-0.2,0.1-0.3,0.2-0.5,0.3
		c-0.6,0.3-0.6,0.7-0.7,1.3c0.3,0.6,0.5,0.8,1.2,1v0.1c-1.3,1.8-2.9,0.9-5,1.9c-1.2,0.6-3.8,4.3-4.2,5.6c-0.1,0-0.1,0.1-0.2,0.1
		c-0.2-0.3-0.4-0.6-0.6-0.9c-0.2,0-0.3-0.1-0.5-0.1c-1.1,0.5-1.6,1.2-1.2,2.6c0.1,0.1,0.2,0.1,0.3,0.2C58,49.4,66.2,42.7,67.4,40.7z
		"/>
</g>
</svg>
